HIERARCHY
ROOT Hips
{
	OFFSET 0.000000 0.000000 0.000000 
	CHANNELS 6 Xposition Yposition Zposition Yrotation Zrotation Xrotation 
	JOINT Lumbar
	{
		OFFSET 0.000000 0.000000 0.000000 
		CHANNELS 3 Zrotation Xrotation Yrotation
		JOINT Neck
		{
			OFFSET 0.000000 0.445665 0.000000 
			CHANNELS 3 Zrotation Xrotation Yrotation
			End Site
			{
				OFFSET 0.000000 0.227535 0.000000 
			}
		}
		JOINT RightShoulder
		{
			OFFSET 0.019635 0.377685 0.194865 
			CHANNELS 3 Zrotation Xrotation Yrotation
			JOINT RightElbow
			{
				OFFSET 0.000000 -0.243375 0.000000 
				CHANNELS 2 Zrotation Yrotation
				JOINT RightWrist
				{
					OFFSET 0.000000 -0.264825 0.000000 
					CHANNELS 2 Zrotation Xrotation
					End Site
					{
						OFFSET 0.006600 -0.176220 0.000990 
					}
				}
			}
		}
		JOINT LeftShoulder
		{
			OFFSET 0.019635 0.377685 -0.194865 
			CHANNELS 3 Zrotation Xrotation Yrotation
			JOINT LeftElbow
			{
				OFFSET 0.000000 -0.243375 0.000000 
				CHANNELS 2 Zrotation Yrotation
				JOINT LeftWrist
				{
					OFFSET 0.000000 -0.264825 0.000000 
					CHANNELS 2 Zrotation Xrotation
					End Site
					{
						OFFSET 0.006600 -0.176220 -0.000990 
					}
				}
			}
		}
	}
	JOINT RightHip
	{
		OFFSET 0.052140 -0.069960 0.075570 
		CHANNELS 3 Zrotation Xrotation Yrotation
		JOINT RightKnee
		{
			OFFSET 0.000000 -0.402270 0.000000 
			CHANNELS 1 Zrotation
			JOINT RightAnkle
			{
				OFFSET 0.000000 -0.404085 0.000000 
				CHANNELS 3 Zrotation Xrotation Yrotation
				End Site
				{
					OFFSET 0.204105 -0.089430 0.008415 
				}
			}
		}
	}
	JOINT LeftHip
	{
		OFFSET 0.052140 -0.069960 -0.075570 
		CHANNELS 3 Zrotation Xrotation Yrotation
		JOINT LeftKnee
		{
			OFFSET 0.000000 -0.402270 0.000000 
			CHANNELS 1 Zrotation
			JOINT LeftAnkle
			{
				OFFSET 0.000000 -0.404085 0.000000 
				CHANNELS 3 Zrotation Xrotation Yrotation
				End Site
				{
					OFFSET 0.204105 -0.089430 -0.008415 
				}
			}
		}
	}
}
MOTION
Frames: 23
Frame Time: 0.02
0.65633 0.67948 0.17249 893.9835 0 4.58077 -9.91696 -3.23491 -0.19315 -6.81477 3.85944 0.05182 1.95271 -27.56695 -2.44994 116.14737 47.45637 -28.6739 1.1586 -2.63003 12.31317 -5.45362 94.68288 -56.28528 -39.60797 1.06132 68.39271 -0.29794 -3.93883 -79.35763 10.24344 -4.62765 -3.07278 66.60111 -1.64225 10.42772 -75.95118 10.68529 7.38071 7.08141
0.65646 0.67921 0.17234 893.92671 0 4.64985 -9.25418 -3.28706 -0.0671 -7.86133 3.5355 0.06085 2.29167 -26.65941 -2.24299 115.56727 49.25541 -28.49007 0.89063 -1.78756 12.4909 -5.30752 94.52612 -56.04152 -39.583 1.03052 68.4599 -0.21113 -3.72687 -79.47328 10.47487 -4.19966 -2.46683 66.61065 -1.60069 10.46888 -75.92513 10.45545 7.02069 6.62471
0.65655 0.67895 0.17217 893.85806 0 4.72307 -8.61737 -3.34847 0.07312 -9.02704 3.19401 0.08466 2.83627 -25.75729 -2.01789 114.97406 51.29128 -28.35198 0.58679 -0.80132 12.70595 -5.20195 94.37037 -55.74907 -39.55277 0.99409 68.53127 -0.09421 -3.48146 -79.57842 10.58658 -3.6655 -1.77592 66.61757 -1.56489 10.50039 -75.87658 10.0895 6.60222 6.19952
0.65667 0.67869 0.17202 893.79806 0 4.79248 -7.97416 -3.40354 0.20912 -10.12903 2.86052 0.09779 3.28177 -24.85014 -1.81386 114.38981 53.1854 -28.20007 0.30389 0.11452 12.90603 -5.08139 94.21191 -55.48094 -39.5242 0.96045 68.60077 0.00431 -3.25965 -79.68266 10.72222 -3.19429 -1.14257 66.6272 -1.5294 10.5353 -75.83389 9.76205 6.21472 5.77386
0.65675 0.67843 0.17185 893.72465 0 4.87037 -7.30853 -3.46781 0.3368 -11.27805 2.52512 0.12657 3.75996 -23.95178 -1.55187 113.7926 55.22576 -28.02097 0.00086 1.05824 13.09973 -4.94649 94.06234 -55.20364 -39.49871 0.92586 68.67011 0.12235 -3.00176 -79.81081 10.98382 -2.65928 -0.4264 66.6297 -1.48132 10.57551 -75.80635 9.52045 5.80204 5.28486
0.65689 0.67815 0.1717 893.67607 0 4.93134 -6.69628 -3.51493 0.48425 -12.35358 2.19076 0.12729 4.21511 -23.03866 -1.40789 113.21956 57.01557 -27.90756 -0.26823 1.97443 13.31388 -4.85124 93.89476 -54.93377 -39.46601 0.89188 68.74075 0.20746 -2.81132 -79.88672 10.95736 -2.23293 0.13515 66.64671 -1.46118 10.60153 -75.74367 9.07565 5.43125 4.93784
0.6572 0.67781 0.17161 893.70094 0 4.94574 -6.21717 -3.51377 0.68911 -13.21251 1.85727 0.03921 4.56105 -22.06562 -1.59254 112.71452 58.07186 -27.97618 -0.43876 2.79256 13.5866 -4.85318 93.67705 -54.69736 -39.40864 0.86114 68.81447 0.18916 -2.81485 -79.8203 10.14399 -2.12889 0.26357 66.70432 -1.51341 10.59569 -75.58316 8.06543 5.18055 4.96654
0.65757 0.67744 0.17156 893.75081 0 4.94271 -5.79231 -3.49481 0.91205 -13.98952 1.52702 -0.07613 4.87456 -21.08127 -1.89727 112.23475 58.86451 -28.10704 -0.57312 3.57449 13.8763 -4.89407 93.44138 -54.47007 -39.34502 0.83119 68.88923 0.13776 -2.88741 -79.70177 9.04914 -2.13875 0.23047 66.7767 -1.59412 10.57484 -75.38962 6.86379 4.97659 5.139
0.65791 0.67708 0.17149 893.78791 0 4.94686 -5.34747 -3.48302 1.12263 -14.79344 1.19926 -0.17389 5.19869 -20.11335 -2.14888 111.74454 59.76738 -28.20133 -0.72146 4.36402 14.15086 -4.91858 93.21402 -54.23767 -39.28842 0.80075 68.96328 0.10466 -2.92898 -79.60751 8.09655 -2.09908 0.26158 66.84254 -1.66406 10.55758 -75.21575 5.77579 4.75868 5.25221
0.65824 0.67672 0.1714 893.83052 0 4.95428 -4.88334 -3.47519 1.35157 -15.64612 0.8531 -0.29307 5.54778 -19.09644 -2.39435 111.24894 60.71984 -28.33177 -0.88148 5.19739 14.45843 -4.93872 92.98571 -54.00692 -39.21491 0.77062 69.03868 0.05828 -2.96847 -79.51044 7.07805 -2.04624 0.33466 66.90772 -1.72526 10.55383 -75.02145 4.57029 4.50826 5.34178
0.65861 0.67637 0.17138 893.86776 0 4.95068 -4.47256 -3.45505 1.54591 -16.37503 0.54755 -0.37427 5.83416 -18.18071 -2.68053 110.77139 61.50228 -28.40164 -1.00806 5.92729 14.70034 -4.97695 92.75557 -53.77646 -39.17407 0.74019 69.11122 0.03205 -3.0282 -79.40695 6.13301 -2.04929 0.28062 66.97762 -1.81104 10.51824 -74.86206 3.56595 4.33689 5.51304
0.65912 0.67601 0.17155 893.88411 0 4.92108 -4.19037 -3.403 1.64428 -16.79132 0.34248 -0.34446 5.95675 -17.53146 -3.05707 110.33229 61.88683 -28.28411 -1.05134 6.39358 14.76038 -5.05296 92.52083 -53.53689 -39.23499 0.70812 69.17763 0.06284 -3.1354 -79.29886 5.44789 -2.17922 -0.08355 67.05866 -1.96007 10.40095 -74.80844 3.16446 4.37786 5.88586
0.65968 0.67567 0.17179 893.89424 0 4.88094 -3.96094 -3.33958 1.70638 -17.08351 0.18028 -0.27554 6.01606 -16.98752 -3.46909 109.91171 62.10655 -28.10412 -1.06194 6.75379 14.75284 -5.14598 92.28562 -53.29905 -39.32727 0.67589 69.24071 0.11602 -3.25938 -79.18617 4.84934 -2.36194 -0.57081 67.14361 -2.13223 10.25195 -74.79104 2.97273 4.49611 6.3336
0.66021 0.67532 0.17199 893.90721 0 4.84546 -3.71071 -3.28279 1.78241 -17.42598 0.00564 -0.22414 6.10226 -16.40542 -3.8603 109.48588 62.39633 -27.95573 -1.08728 7.15316 14.77371 -5.23296 92.05323 -53.0656 -39.39854 0.64417 69.30401 0.1634 -3.37001 -79.07531 4.21936 -2.52073 -1.00296 67.22572 -2.2924 10.11551 -74.75628 2.68515 4.57566 6.73973
0.66076 0.67495 0.17222 893.92096 0 4.80986 -3.44873 -3.21909 1.86988 -17.79169 -0.19866 -0.17443 6.19518 -15.78126 -4.27583 109.04679 62.69886 -27.79609 -1.11212 7.58957 14.80506 -5.3148 91.8092 -52.81024 -39.49772 0.61055 69.37291 0.19177 -3.5063 -78.96344 3.54561 -2.6831 -1.43697 67.31295 -2.46039 9.98532 -74.72394 2.39252 4.67174 7.18325
0.66128 0.67465 0.1724 893.93132 0 4.77234 -3.22334 -3.16745 1.92466 -18.08036 -0.331 -0.11196 6.2597 -15.27079 -4.64714 108.64035 62.93741 -27.64408 -1.13038 7.92407 14.79816 -5.41011 91.58956 -52.60123 -39.54678 0.58095 69.42924 0.26473 -3.59332 -78.85362 2.98785 -2.84915 -1.89454 67.39009 -2.6165 9.83607 -74.69586 2.16333 4.75135 7.56429
0.66173 0.67452 0.17244 893.93339 0 4.7312 -3.08335 -3.15087 1.89795 -18.18826 -0.27563 -0.0203 6.25901 -15.04074 -4.89053 108.31131 63.05483 -27.52957 -1.14142 8.00322 14.70332 -5.54472 91.43746 -52.51621 -39.44579 0.56146 69.45238 0.46162 -3.53051 -78.74769 2.72641 -3.0113 -2.38306 67.43971 -2.74018 9.63091 -74.66875 2.0543 4.76457 7.75812
0.66215 0.67446 0.17242 893.93222 0 4.68872 -2.97867 -3.14706 1.83953 -18.22293 -0.14936 0.08232 6.2325 -14.92303 -5.08695 108.01599 63.11208 -27.42447 -1.14661 7.98365 14.57209 -5.69093 91.3101 -52.47838 -39.29419 0.54618 69.46282 0.70149 -3.41886 -78.64481 2.58091 -3.17482 -2.89032 67.47874 -2.84984 9.40977 -74.64524 2.00361 4.75868 7.88506
0.66256 0.67437 0.17243 893.9327 0 4.64754 -2.85927 -3.13823 1.79558 -18.29053 -0.05507 0.17771 6.21941 -14.75895 -5.3025 107.71038 63.18813 -27.31386 -1.15268 8.00931 14.45653 -5.82751 91.17128 -52.42131 -39.16826 0.52963 69.47865 0.91786 -3.33574 -78.54267 2.38534 -3.33812 -3.3917 67.52166 -2.96178 9.20331 -74.62153 1.92956 4.76263 8.03952
0.66303 0.67428 0.17244 893.93221 0 4.60314 -2.73588 -3.12589 1.75009 -18.35546 0.04022 0.28391 6.19689 -14.57851 -5.52911 107.38381 63.29403 -27.20588 -1.16498 8.02952 14.3419 -5.98307 91.03287 -52.35517 -39.03161 0.51039 69.49609 1.15218 -3.22708 -78.43124 2.18064 -3.5023 -3.88913 67.56857 -3.09176 8.96458 -74.59294 1.84916 4.76446 8.20891
0.66338 0.6742 0.17244 893.93308 0 4.56521 -2.6288 -3.12379 1.70079 -18.40989 0.14904 0.36973 6.18883 -14.45777 -5.72059 107.10915 63.32603 -27.09602 -1.16349 8.03926 14.21807 -6.10169 90.9001 -52.31889 -38.90553 0.49773 69.50704 1.35848 -3.15909 -78.34009 2.02253 -3.66341 -4.39411 67.60465 -3.18063 8.78948 -74.57498 1.79341 4.76511 8.33027
0.66343 0.67416 0.17239 893.93811 0 4.54622 -2.55536 -3.14922 1.64856 -18.45629 0.28352 0.39622 6.22646 -14.47137 -5.82997 106.96525 63.16692 -26.97407 -1.12425 8.04294 14.07376 -6.11488 90.77166 -52.35528 -38.81487 0.50242 69.50456 1.48132 -3.22146 -78.30316 1.95494 -3.8227 -4.94473 67.61291 -3.15816 8.79591 -74.58456 1.78878 4.76708 8.33507
0.66335 0.67412 0.17234 893.9447 0 4.53375 -2.4974 -3.18417 1.59383 -18.49472 0.42794 0.40173 6.28006 -14.5412 -5.90473 106.87309 62.93688 -26.85106 -1.07172 8.0403 13.92255 -6.09063 90.64909 -52.41975 -38.73746 0.51353 69.49577 1.5734 -3.32546 -78.28675 1.93155 -3.97729 -5.49625 67.61068 -3.09492 8.86673 -74.6047 1.80656 4.76817 8.29349
